<svg xmlns="http://www.w3.org/2000/svg" xmlns:xlink="http://www.w3.org/1999/xlink" id="Capa_1" x="0px" y="0px" viewBox="0 0 512 512" style="enable-background:new 0 0 512 512;" xml:space="preserve">
<g>
	<path d="M405.1,331.8l-29.5-12.7V118.4c0-31.6-12.3-61.3-34.7-83.7C318.5,12.3,288.7,0,257.1,0c-65.3,0-118.4,53.1-118.4,118.4V288   c0,4.1,3.4,7.5,7.5,7.5s7.5-3.4,7.5-7.5v-95.5c1.5,0.4,3.2,0.6,4.8,0.6h8.6c1.1,24.9,12.6,47.2,30.1,62.6v37.6l-89.1,38.7   c-27.7,11.6-45.5,38.6-45.5,68.6v103.8c0,4.1,3.4,7.5,7.5,7.5s7.5-3.4,7.5-7.5V400.7c0-24,14.3-45.4,36.4-54.8l53.8-23.4l79.1,69.1   c2.9,2.5,6.5,3.8,10.1,3.8c3.6,0,7.2-1.3,10.1-3.8l33.3-29c3.1-2.7,3.4-7.5,0.7-10.6s-7.5-3.4-10.6-0.7l-33.3,29   c-0.1,0.1-0.3,0.1-0.4,0l-73.8-64.4l20.2-8.8l47.7,41.7c1.4,1.2,3.2,1.9,4.9,1.9c1.8,0,3.5-0.6,4.9-1.8l48-41.9l21.8,9.3   l-16.5,14.4c-3.1,2.7-3.4,7.5-0.7,10.6c1.5,1.7,3.6,2.6,5.7,2.6c1.8,0,3.5-0.6,4.9-1.9l21.9-19.1l53,22.7   c21.5,9.5,35.3,30.8,35.3,54.3v104.7c0,4.1,3.4,7.5,7.5,7.5s7.5-3.4,7.5-7.5V399.8C449.4,370.4,432,343.7,405.1,331.8L405.1,331.8z    M314.8,293.1v-37.3c17.5-15.5,28.9-37.7,30.1-62.6h8.6c2.5,0,4.9-0.5,7.1-1.3v120.8L314.8,293.1z M345,178.2v-34h8.5   c2.7,0,4.8,2.2,4.8,4.8v24.4c0,2.7-2.2,4.8-4.8,4.8L345,178.2L345,178.2z M153.7,173.3V149c0-2.7,2.2-4.8,4.8-4.8h8.5v34h-8.5   C155.9,178.2,153.7,176,153.7,173.3z M182,189.1l0-46.6c4.7-1.6,10.5-4.5,15.7-9.9c4.4-4.6,7.6-10.2,9.4-16.4   c1.1-4-1.2-8.1-5.2-9.3c-4-1.1-8.1,1.2-9.3,5.2c-0.8,2.7-2.4,6.6-5.8,10.1c-4.5,4.7-9.9,6.3-13,6.9h-15.3c-1.7,0-3.3,0.2-4.8,0.6   v-11.4c0-57,46.4-103.4,103.4-103.4c27.6,0,53.6,10.8,73.1,30.3s30.3,45.5,30.3,73.1v12.1c-2.2-0.8-4.6-1.3-7.1-1.3   c-5.2-0.4-12.7-1.3-18.1,0.3c-8.7,2.5-17.8,3.8-27,3.8c-41.8,0-78.6-26.7-91.5-66.4c-1.3-3.9-5.5-6.1-9.4-4.8   c-3.9,1.3-6.1,5.5-4.8,9.4c14.9,45.9,57.4,76.8,105.8,76.8c7.3,0,14.5-0.7,21.6-2.1v42.9c0,40.8-33.2,74-74,74   C215.2,263,182,229.9,182,189.1L182,189.1z M256,333.2L212.2,295v-28.5c12.9,7.3,27.9,11.5,43.8,11.5c15.9,0,30.9-4.2,43.8-11.6   V295L256,333.2z" fill="#22bc8f"></path>
	<path d="M144.2,415.9c-4.1,0-7.5,3.4-7.5,7.5v81.1c0,4.1,3.4,7.5,7.5,7.5s7.5-3.4,7.5-7.5v-81.1   C151.7,419.3,148.4,415.9,144.2,415.9z" fill="#22bc8f"></path>
	<path d="M368,415.9c-4.1,0-7.5,3.4-7.5,7.5v81.1c0,4.1,3.4,7.5,7.5,7.5s7.5-3.4,7.5-7.5v-81.1C375.5,419.3,372.1,415.9,368,415.9z" fill="#22bc8f"></path>
</g>
</svg>