<svg xmlns="http://www.w3.org/2000/svg" xmlns:xlink="http://www.w3.org/1999/xlink" id="_x201C__2_" x="0px" y="0px" viewBox="0 0 26 20" style="enable-background:new 0 0 26 20;" xml:space="preserve">
<g>
	<defs>
		<path id="SVGID_1_" d="M20.4,9.2c0-2.3,1.9-4.4,5.6-6.1L24.3,0c-6.7,3.2-10,7.6-10,13.2c0,1.9,0.6,3.5,1.9,4.8s2.7,2,4.5,2    c1.5,0,2.8-0.5,3.8-1.5s1.5-2.3,1.5-3.7s-0.5-2.6-1.6-3.7C23.3,10,22,9.4,20.4,9.2z M11.8,3.1L10,0C3.3,3.2,0,7.6,0,13.2    c0,1.9,0.6,3.5,1.9,4.8c1.2,1.3,2.7,2,4.4,2c1.5,0,2.8-0.5,3.8-1.5s1.5-2.3,1.5-3.7s-0.5-2.6-1.6-3.7C9,10,7.6,9.4,6,9.3    C6.1,6.9,8,4.9,11.8,3.1z"></path>
	</defs>
	<use xlink:href="#SVGID_1_" style="overflow:visible;fill:#085d41;"></use>
	<clipPath id="SVGID_2_">
		<use xlink:href="#SVGID_1_" style="overflow:visible;"></use>
	</clipPath>
</g>
</svg>