<svg xmlns="http://www.w3.org/2000/svg" xmlns:xlink="http://www.w3.org/1999/xlink" id="Capa_1" x="0px" y="0px" viewBox="0 0 512 512" style="enable-background:new 0 0 512 512;" xml:space="preserve">
<style type="text/css">
	.st0{fill:#73c53f;}
</style>
<path class="st0" d="M256,229.6l-7.6,12.8c-2.3,3.8-3.6,8.1-3.8,12.5h22.8c-0.2-4.4-1.5-8.7-3.8-12.5L256,229.6z"></path>
<path class="st0" d="M244.5,362.3c3.8,0.4,7.6,0.6,11.5,0.6c3.9,0,7.7-0.2,11.5-0.6V285h-22.9V362.3z"></path>
<path class="st0" d="M256,149.1c-59,0-107,47.9-107,106.8c0,44.3,27.1,82.3,65.5,98.6v-98.3c0-10.3,2.8-20.4,8.1-29.2l20.5-34.3  c2.7-4.5,7.6-7.3,12.9-7.3s10.2,2.8,12.9,7.3l20.5,34.3c5.3,8.8,8.1,18.9,8.1,29.2v98.3c38.5-16.2,65.5-54.3,65.5-98.6  C363,197.1,315,149.2,256,149.1L256,149.1z"></path>
<path class="st0" d="M503.2,222c-13.3-6-41-16.6-61.2-24c-0.3-0.1-0.5-0.3-0.6-0.6l-13-31.5c-0.1-0.3-0.1-0.5,0-0.8  c8.7-20.1,20.3-47.9,25.1-61.8c1.9-5.4,0.5-11.5-3.6-15.5l-27.4-27.3c-4.2-4.2-10.4-5.5-15.9-3.4c-13.7,5.1-40.9,17.2-60.3,26.3  c-0.3,0.1-0.5,0.1-0.8,0l-31.4-13c-0.2-0.1-0.4-0.3-0.5-0.6c-8-20.3-19.5-48.2-25.9-61.4C285.2,3.3,280,0,274.3,0h-38.6  c-5.9,0-11.2,3.4-13.6,8.8c-6.1,13.3-16.7,41.1-24,61.2c-0.1,0.3-0.3,0.5-0.6,0.6l-31.4,13c-0.2,0.1-0.5,0.1-0.8,0  c-20.1-8.7-48-20.3-61.8-25.1C98,56.6,92,58,87.9,62.1L60.6,89.4c-4.2,4.2-5.5,10.4-3.4,15.9c5.2,13.7,17.2,40.9,26.3,60.3  c0.1,0.3,0.1,0.5,0,0.8l-13,31.4c-0.1,0.3-0.3,0.4-0.6,0.6c-20.3,8-48.2,19.5-61.4,25.9C3.3,226.7,0,232,0,237.8v38.7  c0,5.9,3.4,11.2,8.8,13.6c13.3,6.1,41.1,16.7,61.2,24c0.3,0.1,0.5,0.3,0.6,0.6l13,31.4c0.1,0.3,0.1,0.5,0,0.8  c-8.7,20-20.3,47.9-25.1,61.8c-1.9,5.4-0.5,11.5,3.6,15.5l27.3,27.3c4.2,4.2,10.4,5.5,15.9,3.4c13.7-5.2,40.8-17.3,60.3-26.3  c0.3-0.1,0.5-0.1,0.8,0l31.4,13c0.2,0.1,0.4,0.3,0.5,0.6c8,20.3,19.6,48.2,25.9,61.4c2.5,5.2,7.8,8.5,13.5,8.5h38.6  c5.9,0,11.2-3.4,13.7-8.8c6.1-13.3,16.7-41.1,24-61.2c0.1-0.3,0.3-0.5,0.6-0.6l31.5-13c0.3-0.1,0.5-0.1,0.8,0  c20,8.7,47.9,20.3,61.7,25.1c5.4,1.9,11.5,0.5,15.5-3.5l27.4-27.3c4.2-4.2,5.5-10.4,3.5-15.9c-5.1-13.7-17.3-40.9-26.3-60.3  c-0.1-0.3-0.1-0.5,0-0.8l13-31.5c0.1-0.2,0.3-0.4,0.6-0.5c20.3-8,48.3-19.6,61.5-26c5.2-2.5,8.5-7.8,8.5-13.5v-38.6  C512,229.7,508.6,224.4,503.2,222L503.2,222z M256,392.9c-75.5,0-137-61.4-137-136.9c0-75.4,61.4-136.8,137-136.8  c75.5,0,137,61.4,137,136.8C393,331.5,331.5,392.9,256,392.9z"></path>
</svg>