<svg xmlns="http://www.w3.org/2000/svg" xmlns:xlink="http://www.w3.org/1999/xlink" id="Layer_1" x="0px" y="0px" viewBox="0 0 464 464" style="enable-background:new 0 0 464 464;" xml:space="preserve">
<style type="text/css">
	.st0{fill:#73c53f;}
</style>
<path class="st0" d="M84,178.6l4,2.3v25.3l-18.2,4.5l42.2,24.6l-0.3,14.8l-0.6,2.3l25-5.6V241c0-10.8,4.3-20.6,11.5-27.9l-27.4-6.9  l0-25.3l4-2.3c12.4-7.2,20-20.4,20-34.6v-14c0-22.5-17.4-41.4-38.8-42C94.4,87.6,84,91.7,76.1,99.3C68.3,106.9,64,117.1,64,128v16  C64,158.2,71.7,171.5,84,178.6z"></path>
<path class="st0" d="M143.6,89.3C162.4,59,195.8,40,232,40c35.9,0,69.2,18.8,88.1,48.8c0.3-0.3,0.6-0.7,0.9-1  c5-4.8,10.7-8.6,16.9-11.2l9.1-21.2l-25.5-25.5l-22.5,14.6l-4.3-2.6c-10.8-6.6-22.4-11.4-34.6-14.4l-4.9-1.2L249.5,0h-35l-5.6,26.2  l-4.9,1.2c-12.2,2.9-23.9,7.8-34.6,14.4l-4.3,2.6l-22.5-14.6L117,55.3l9,21.4C132.6,79.7,138.6,84,143.6,89.3z"></path>
<path class="st0" d="M0,184v146.2l34.3,11.4l29-116.1L0,184z"></path>
<path class="st0" d="M328,189.9c-14.9-10.4-24-27.6-24-45.9v-16c0-8.8,2.1-17.3,5.9-24.9C294.7,74.4,264.6,56,232,56  c-32.9,0-63.2,18.6-78.2,47.7c3.9,7.9,6.2,16.9,6.2,26.3v14c0,18.3-9.1,35.5-24,45.9v3.8l32,8l32-8v-3.8c-14.9-10.4-24-27.6-24-45.9  v-16c0-15.3,6-29.6,17-40.2c11-10.6,25.4-16.2,40.7-15.8c29.9,0.9,54.3,26.9,54.3,58v14c0,18.3-9.1,35.5-24,45.9v3.8l32,8l32-8  V189.9z"></path>
<path class="st0" d="M96,244.6L77.8,234L49.6,346.8l15.7,5.2H66l30-105.1V244.6z"></path>
<path class="st0" d="M170.2,217.7C159.5,220.4,152,230,152,241v2.4l4.6-1c16.9-3.7,34.8-3,51.3,2.3l36.2,11.6c4,0.2,8,0.6,11.9,1.7  l49.2,14.1h4.9l2-1v-30c0-11-7.5-20.6-18.2-23.3L248,206.2l0-25.3l4-2.3c12.4-7.2,20-20.4,20-34.6v-14c0-22.5-17.4-41.4-38.8-42  c-10.8-0.4-21.3,3.7-29.1,11.3c-7.8,7.6-12.1,17.8-12.1,28.7v16c0,14.2,7.7,27.5,20,34.6l4,2.3v25.3L170.2,217.7z"></path>
<path class="st0" d="M320,128v16c0,14.2,7.7,27.5,20,34.6l4,2.3v25.3l-27.5,6.9c7.1,7.3,11.5,17.1,11.5,27.9v21.6l88-46.3l-40-10  l0-25.3l4-2.3c12.4-7.2,20-20.4,20-34.6v-14c0-22.5-17.4-41.4-38.8-42c-10.9-0.4-21.2,3.7-29.1,11.3C324.3,106.9,320,117.1,320,128z  "></path>
<path class="st0" d="M249.6,316.2c-5.2-4.6-13.2-5.4-19.2-1.8l-29.8,17.9c-4.1,2.5-8.9,3.8-13.8,3.8c-14.8,0-26.8-12-26.8-26.8v-1.6  c0-10.2,5.7-19.4,14.8-24l40-20l-11.8-3.8c-13.8-4.4-28.8-5.1-42.9-1.9l-54,12l-21.5,75.4l24.6,14.7c0.7-0.9,1.4-1.9,2.2-2.7  l14.1-14.1c4.6-4.6,11.1-7.3,17.6-7.3c13.5,0,24.4,10.7,24.9,24.1c13.1,0.5,23.5,10.9,24,24c13.1,0.5,23.5,10.9,24,24  c9.5,0.3,17.5,5.9,21.5,14l17.9,14.9c2.3,2,5.3,3,8.4,3c4.6,0,8.3-3.7,8.3-8.3c0-2.5-1.1-4.8-3-6.4l-42.1-35.1l10.3-12.3l43.5,36.2  c1.5,1.3,3.4,1.9,5.3,1.9h1.7c4.6,0,8.3-3.7,8.3-8.3c0-2.5-1.1-4.8-3-6.4l-42.1-35.1l10.3-12.3l43.4,36.2c1.5,1.3,3.5,2,5.5,2h1.4  c4.8,0,8.6-3.9,8.6-8.6c0-2.4-1-4.8-2.8-6.4L249.6,316.2z"></path>
<path class="st0" d="M314,288l-12.2-0.3l-50.3-14.4c-8.2-2.4-17.3-1.5-24.9,2.3L182,298c-3.7,1.8-6,5.5-6,9.7v1.6  c0,6,4.8,10.8,10.8,10.8c2,0,3.9-0.5,5.5-1.5l29.8-17.9c5-3,10.7-4.6,16.6-4.6c8,0,15.6,2.9,21.6,8.3l67.6,60.8  c0.5,0.4,0.9,0.9,1.4,1.3L464,299.1v-90L314,288z"></path>
<path class="st0" d="M237.7,443.2c-1.2,2.7-2.9,5.3-5,7.4l-6,6l6,5.3c1.5,1.3,3.5,2.1,5.5,2.1h1.5c4.6,0,8.3-3.7,8.3-8.3  c0-2.5-1.1-4.8-3-6.4L237.7,443.2z"></path>
<path class="st0" d="M215,424c-2.4,0-4.7,1-6.3,2.6l-14.1,14.1c-1.7,1.7-2.6,4-2.6,6.3c0,4.9,4,9,9,9c2.4,0,4.7-1,6.3-2.6l14.1-14.1  c1.7-1.7,2.6-4,2.6-6.3C224,428,220,424,215,424z"></path>
<path class="st0" d="M176,385c0-4.9-4-9-9-9c-2.4,0-4.7,1-6.3,2.6l-14.1,14.1c-1.7,1.7-2.6,4-2.6,6.3c0,4.9,4,9,9,9  c2.4,0,4.7-1,6.3-2.6l14.1-14.1C175,389.6,176,387.3,176,385z"></path>
<path class="st0" d="M200,409c0-4.9-4-9-9-9c-2.4,0-4.7,1-6.3,2.6l-14.1,14.1c-1.7,1.7-2.6,4-2.6,6.3c0,4.9,4,9,9,9  c2.4,0,4.7-1,6.3-2.6l14.1-14.1C199,413.6,200,411.3,200,409z"></path>
<path class="st0" d="M152,361c0-4.9-4-9-9-9c-2.4,0-4.7,1-6.3,2.6l-14.1,14.1c-1.7,1.7-2.6,4-2.6,6.3c0,4.9,4,9,9,9  c2.4,0,4.7-1,6.3-2.6l14.1-14.1C151,365.6,152,363.3,152,361z"></path>
</svg>