<svg xmlns="http://www.w3.org/2000/svg" xmlns:xlink="http://www.w3.org/1999/xlink" id="Layer_1" x="0px" y="0px" viewBox="0 0 512 512" style="enable-background:new 0 0 512 512;" xml:space="preserve">
<style type="text/css">
	.st0{fill:#73c53f;}
</style>
<g id="_x30_14---Cutting-Cigarette">
	<circle id="Oval" class="st0" cx="137.1" cy="448" r="27.4"></circle>
	<path id="Shape" class="st0" d="M171.1,2.2c-9.8,6.8-15.7,18-15.6,30c0,6.1-4.3-14,52.5,227.8l64.3-17.6   C247.5,183.5,197.1,64,171.1,2.2z"></path>
	<path id="Shape_1_" class="st0" d="M337.2,118.9h-45.4l-25.9,61.3l36.5,86.7L337.2,118.9z"></path>
	<path id="Shape_2_" class="st0" d="M73.1,448c0,35.3,28.7,64,64,64s64-28.7,64-64v-54.9c0-18.4,9.2-35.6,24.6-45.7   c-8.9-5.7-15.9-13.9-20.4-23.5l-8.8,20.8C186.4,368.5,163,384,137.1,384C101.8,384,73.2,412.7,73.1,448z M137.1,402.3   c25.2,0,45.7,20.5,45.7,45.7s-20.5,45.7-45.7,45.7S91.4,473.2,91.4,448C91.5,422.8,111.9,402.3,137.1,402.3z"></path>
	<path id="Shape_3_" class="st0" d="M18.3,100.6h89.6c-9.7-17-9.7-37.9,0-54.9H18.3C8.4,45.7,0,58.3,0,73.1S8.4,100.6,18.3,100.6z    M73.1,64c5,0,9.1,4.1,9.1,9.1c0,5-4.1,9.1-9.1,9.1S64,78.2,64,73.1S68.1,64,73.1,64z M36.6,64c5,0,9.1,4.1,9.1,9.1   c0,5-4.1,9.1-9.1,9.1s-9.1-4.1-9.1-9.1S31.5,64,36.6,64z"></path>
	<path id="Shape_4_" class="st0" d="M232.4,100.6h232.3c-10-16.9-10-37.9,0-54.9H209.2L232.4,100.6z"></path>
	<ellipse id="Oval_1_" class="st0" cx="493.7" cy="73.1" rx="18.3" ry="27.4"></ellipse>
	<path id="Shape_5_" class="st0" d="M151.7,100.6l-12.9-54.9h-1.7c-9.9,0-18.3,12.6-18.3,27.4s8.4,27.4,18.3,27.4H151.7z"></path>
	<path id="Shape_6_" class="st0" d="M340.9,2.2l-10.7,25.3h26C355,17.2,349.4,8,340.9,2.2z"></path>
	<path id="Shape_7_" class="st0" d="M374.9,512c35.3,0,64-28.7,64-64s-28.7-64-64-64c-25.9,0-49.2-15.4-59.4-39.2l-36-85.5   l-67.3,18.4l7.5,32c4.1,16.8,19.1,28.5,36.4,28.5c30.3,0,54.8,24.6,54.9,54.9V448C310.9,483.3,339.5,512,374.9,512L374.9,512z    M374.9,402.3c25.2,0,45.7,20.5,45.7,45.7s-20.5,45.7-45.7,45.7s-45.7-20.5-45.7-45.7C329.2,422.8,349.6,402.3,374.9,402.3z    M256,310.9c-5,0-9.1-4.1-9.1-9.1c0-5,4.1-9.1,9.1-9.1c5,0,9.1,4.1,9.1,9.1C265.1,306.8,261,310.9,256,310.9z"></path>
	<circle id="Oval_2_" class="st0" cx="374.9" cy="448" r="27.4"></circle>
</g>
</svg>