<svg xmlns="http://www.w3.org/2000/svg" xmlns:xlink="http://www.w3.org/1999/xlink" id="Capa_1" x="0px" y="0px" viewBox="0 0 612 612" style="enable-background:new 0 0 612 612;" xml:space="preserve">
<style type="text/css">
	.st0{fill:#73c53f;}
</style>
<g>
	<path class="st0" d="M257.9,336.1c0,17.4-14.1,31.4-31.4,31.4c-17.4,0-31.4-14.1-31.4-31.4c0-17.4,14.1-31.4,31.4-31.4   C243.9,304.6,257.9,318.7,257.9,336.1z M385.5,304.6c-17.4,0-31.4,14.1-31.4,31.4c0,17.4,14.1,31.4,31.4,31.4s31.4-14.1,31.4-31.4   C416.9,318.7,402.8,304.6,385.5,304.6z M612,318.6v59.7c0,30-24.3,54.3-54.3,54.3h-39.4c-39,108.4-138.7,173.8-212.3,173.8   S132.7,540.9,93.7,432.6H54.3c-30,0-54.3-24.3-54.3-54.3v-59.7c0-20.6,11.5-38.6,28.5-47.8C29,186,53.7,119.8,102,74   C149.9,28.6,218.5,5.6,306,5.6s156.1,23,204,68.4c48.3,45.8,73,112,73.6,196.8C600.5,280,612,297.9,612,318.6z M497.1,336.3   c0-14-0.7-27.1-1.8-39.8c-24.1-22-67.8-38.8-123-45c7.2,8.1,13.5,18.9,17.3,33c-33.8-26.6-100.2-20.3-150.4-79.9   c-2.9-3.3-5.4-6.5-7.5-9.4c0,0-0.1-0.1-0.1-0.1l0,0c-8.9-12.1-12-19.3-12.1-11.3c-1.5,68.5-50,121.9-104,129.5   c-0.3,7.5-0.6,15.1-0.6,23.1c0,29,4.7,55.4,12.8,79.1C158,451.9,208,462.3,252.3,465c8.2-13.1,26.7-22.2,48.1-22.2   c29.1,0,52.7,16.8,52.7,37.4c0,20.7-23.6,37.4-52.7,37.4c-22.4,0-41.5-9.9-49.1-23.9c-30.9-1.8-65-7.1-95.3-21.4   c42.6,62.8,108.7,96.1,150,96.1C370.9,568.4,497.1,486.5,497.1,336.3z M550.9,264.3C547.4,116.3,463,38.2,306,38.2   S64.6,116.3,61.1,264.3H82c7.6-49.9,23.8-90.9,48.3-122.4c39.1-50.2,98.2-75.7,175.7-75.7s136.6,25.5,175.7,75.7   c24.5,31.5,40.6,72.5,48.3,122.4L550.9,264.3L550.9,264.3z"></path>
</g>
</svg>